<svg width="37" height="36" viewBox="0 0 37 36" fill="none" xmlns="http://www.w3.org/2000/svg">
<path d="M18.8859 9.15385C20.3281 9.15385 22.1359 8.20788 23.2125 6.9466C24.1875 5.80356 24.8984 4.20725 24.8984 2.61093C24.8984 2.39415 24.8781 2.17737 24.8375 2C23.2328 2.05912 21.3031 3.0445 20.1453 4.36491C19.2313 5.36999 18.3984 6.9466 18.3984 8.56262C18.3984 8.79911 18.4391 9.0356 18.4594 9.11443C18.5609 9.13414 18.7234 9.15385 18.8859 9.15385ZM13.8078 33C15.7781 33 16.6516 31.719 19.1094 31.719C21.6078 31.719 22.1562 32.9606 24.35 32.9606C26.5031 32.9606 27.9453 31.0292 29.3062 29.1373C30.8297 26.9695 31.4594 24.8411 31.5 24.7425C31.3578 24.7031 27.2344 23.0674 27.2344 18.4755C27.2344 14.4946 30.4844 12.7012 30.6672 12.5633C28.5141 9.5677 25.2437 9.48887 24.35 9.48887C21.9328 9.48887 19.9625 10.9078 18.7234 10.9078C17.3828 10.9078 15.6156 9.5677 13.5234 9.5677C9.54219 9.5677 5.5 12.7603 5.5 18.7908C5.5 22.5353 7.00312 26.4965 8.85156 29.0585C10.4359 31.2263 11.8172 33 13.8078 33Z" fill="black"/>
</svg>
