<svg width="37" height="36" viewBox="0 0 37 36" fill="none" xmlns="http://www.w3.org/2000/svg">
<path fill-rule="evenodd" clip-rule="evenodd" d="M31.46 18.3068C31.46 17.3495 31.3741 16.429 31.2145 15.5454H18.5V20.7675H25.7655C25.4525 22.455 24.5014 23.8847 23.0716 24.842V28.2293H27.4345C29.9873 25.879 31.46 22.4181 31.46 18.3068Z" fill="#4285F4"/>
<path fill-rule="evenodd" clip-rule="evenodd" d="M18.5001 31.4999C22.1451 31.4999 25.201 30.2911 27.4347 28.2293L23.0717 24.842C21.8629 25.652 20.3165 26.1306 18.5001 26.1306C14.984 26.1306 12.0079 23.7559 10.9463 20.5649H6.43604V24.0627C8.6574 28.4747 13.2229 31.4999 18.5001 31.4999Z" fill="#34A853"/>
<path fill-rule="evenodd" clip-rule="evenodd" d="M10.9461 20.565C10.6761 19.755 10.5227 18.8898 10.5227 18C10.5227 17.1102 10.6761 16.245 10.9461 15.435V11.9373H6.43591C5.52159 13.7598 5 15.8216 5 18C5 20.1784 5.52159 22.2402 6.43591 24.0627L10.9461 20.565Z" fill="#FBBC05"/>
<path fill-rule="evenodd" clip-rule="evenodd" d="M18.5001 9.86932C20.4822 9.86932 22.2617 10.5505 23.6608 11.8882L27.5329 8.01614C25.1949 5.83773 22.139 4.5 18.5001 4.5C13.2229 4.5 8.6574 7.52523 6.43604 11.9373L10.9463 15.435C12.0079 12.2441 14.984 9.86932 18.5001 9.86932Z" fill="#EA4335"/>
</svg>
