<svg width="18" height="20" viewBox="0 0 18 20" fill="none" xmlns="http://www.w3.org/2000/svg">
<path fill-rule="evenodd" clip-rule="evenodd" d="M2.06107 0.954915C2.16622 0.878525 2.27495 0.808245 2.38793 0.743588C2.42423 0.824425 2.47557 0.900151 2.54195 0.966529C3.8325 2.25703 4.84549 3.26842 5.73846 3.98311C6.64248 4.70666 7.48909 5.18158 8.46451 5.33608C9.06047 5.43047 9.66756 5.43047 10.2635 5.33608C11.2117 5.1859 12.038 4.73301 12.9137 4.04333C13.7783 3.36245 14.7489 2.40277 15.9707 1.18187C16.0099 1.1427 16.0438 1.10027 16.0725 1.05545C16.442 1.34326 16.7695 1.68172 17.0451 2.06107C18 3.3754 18 5.25027 18 9V11C18 14.7497 18 16.6246 17.0451 17.9389C16.7367 18.3634 16.3634 18.7367 15.9389 19.0451C14.6246 20 12.7497 20 9 20C5.25027 20 3.3754 20 2.06107 19.0451C1.6366 18.7367 1.26331 18.3634 0.954915 17.9389C0 16.6246 0 14.7497 0 11V9C0 5.25027 0 3.3754 0.954915 2.06107C1.26331 1.6366 1.6366 1.26331 2.06107 0.954915ZM5 7.25C4.58579 7.25 4.25 7.58579 4.25 8C4.25 8.41421 4.58579 8.75 5 8.75H13C13.4142 8.75 13.75 8.41421 13.75 8C13.75 7.58579 13.4142 7.25 13 7.25H5ZM5 11.25C4.58579 11.25 4.25 11.5858 4.25 12C4.25 12.4142 4.58579 12.75 5 12.75H8C8.41421 12.75 8.75 12.4142 8.75 12C8.75 11.5858 8.41421 11.25 8 11.25H5ZM5 15.25C4.58579 15.25 4.25 15.5858 4.25 16C4.25 16.4142 4.58579 16.75 5 16.75H13C13.4142 16.75 13.75 16.4142 13.75 16C13.75 15.5858 13.4142 15.25 13 15.25H5Z" fill="black"/>
<path d="M9 0C11.6999 0 13.4278 0 14.6744 0.356472C13.554 1.47389 12.716 2.28975 11.9857 2.8649C11.2161 3.47095 10.6262 3.75993 10.0289 3.85454C9.58837 3.92431 9.13965 3.92431 8.69917 3.85454C8.08463 3.75721 7.47818 3.45425 6.67576 2.81202C5.92863 2.21404 5.06901 1.37043 3.9166 0.219675C5.10873 0 6.70241 0 9 0Z" fill="black"/>
</svg>
